<svg xmlns="http://www.w3.org/2000/svg" version="1.1" width="4908" height="5786">
<path d="M0 0 C677.49 0 1354.98 0 2053 0 C2053 177.87 2053 355.74 2053 539 C1597.27 539 1141.54 539 672 539 C672 687.17 672 835.34 672 988 C1088.46 988 1504.92 988 1934 988 C1934 1159.93 1934 1331.86 1934 1509 C1517.54 1509 1101.08 1509 672 1509 C672 1670.37 672 1831.74 672 1998 C1139.61 1998 1607.22 1998 2089 1998 C2089 2188.74 2089 2379.48 2089 2576 C1783.64115061 2576.08080295 1783.64115061 2576.08080295 1666.86970866 2576.09632993 C1665.23046985 2576.09654868 1663.59123104 2576.09676752 1661.95199223 2576.09698644 C1661.13006246 2576.0970962 1660.30813269 2576.09720595 1659.46129596 2576.09731903 C1630.42436153 2576.10120189 1601.38742713 2576.10521559 1572.35049276 2576.10945851 C1569.57921549 2576.1098623 1566.80793822 2576.11026266 1564.03666095 2576.11066218 C1521.62830126 2576.11678875 1479.21994273 2576.12458422 1436.81158447 2576.1373291 C1435.90041891 2576.1376029 1434.98925334 2576.1378767 1434.0504767 2576.13815879 C1419.36088893 2576.14258323 1404.6713012 2576.14715057 1389.98171348 2576.15173688 C1347.64304682 2576.16495348 1305.30438106 2576.17710396 1262.96571255 2576.18227959 C1262.09404015 2576.18238666 1261.22236775 2576.18249373 1260.32428104 2576.18260404 C1241.18350674 2576.18493621 1222.04273243 2576.18672562 1202.90195804 2576.18800197 C1195.19897114 2576.18852517 1187.49598425 2576.18912641 1179.79299736 2576.18975449 C1178.94996791 2576.18982134 1178.10693845 2576.18988819 1177.23836265 2576.18995707 C1150.12909584 2576.19214566 1123.01983562 2576.20067314 1095.91057146 2576.21256442 C1068.57560203 2576.22452544 1041.24063897 2576.23018985 1013.90566685 2576.22724798 C1010.11788275 2576.22684188 1006.33009864 2576.22650709 1002.54231453 2576.22621536 C1001.79987929 2576.2261556 1001.05744406 2576.22609584 1000.29251079 2576.22603427 C988.59342166 2576.22527653 976.89434614 2576.23121046 965.1952607 2576.24001972 C953.65703303 2576.24856758 942.11882888 2576.24967258 930.58059835 2576.24366363 C924.42239275 2576.24066218 918.26423209 2576.24069867 912.10603143 2576.24976636 C886.65680045 2576.28506521 861.37857058 2576.03738652 836 2574 C834.98344397 2573.92034981 833.96688794 2573.84069961 832.91952718 2573.75863577 C827.29391703 2573.31437181 821.67735505 2572.81410137 816.0625 2572.25 C815.22624084 2572.16696625 814.38998169 2572.0839325 813.52838135 2571.99838257 C725.58005659 2563.17942497 639.27781562 2541.89594901 431.69921875 2446.63720703 C428.82540706 2444.89410092 425.94419215 2443.16363688 423.0625 2441.43359375 C412.78821443 2435.2451888 402.64345267 2428.92814799 392.73291016 2422.17236328 C390.96053419 2420.97330025 389.17607148 2419.79465208 387.38671875 2418.62109375 C378.10391199 2412.52360001 369.10196851 2406.07947503 360.12646484 2399.54003906 C357.58947128 2397.70268483 355.03216452 2395.89555114 352.47192383 2394.09082031 C346.08419881 2389.58055935 339.89995721 2384.85995901 333.78125 2379.9921875 C331.02979913 2377.80487244 328.25577928 2375.64960937 325.46875 2373.5078125 C318.19083394 2367.90993804 311.02151616 2362.32528344 304.28515625 2356.07421875 C301.7623354 2353.78427367 299.14992586 2351.641317 296.5 2349.5 C292.06535029 2345.90974762 287.79288027 2342.18543521 283.58203125 2338.3359375 C281.51553213 2336.46639669 279.42890526 2334.6313231 277.32446289 2332.80517578 C263.96409243 2321.12080286 251.39537794 2308.55790556 238.86669922 2295.99707031 C236.34588248 2293.47081971 233.81966262 2290.95005856 231.29296875 2288.4296875 C229.66113708 2286.79719606 228.02961509 2285.16439499 226.3984375 2283.53125 C225.65669281 2282.79152954 224.91494812 2282.05180908 224.15072632 2281.28967285 C220.132998 2277.25399057 216.27818962 2273.13237505 212.57092285 2268.80903625 C209.85250924 2265.67857777 206.97645975 2262.69624027 204.125 2259.6875 C199.2697119 2254.52415312 194.62611475 2249.27022585 190.19921875 2243.73046875 C187.73072236 2240.66567483 185.18261172 2237.67778704 182.625 2234.6875 C176.8849685 2227.94431724 171.41879009 2221.00243649 166 2214 C165.37593262 2213.1961084 165.37593262 2213.1961084 164.73925781 2212.37597656 C162.25086003 2209.16927839 159.77673124 2205.95211165 157.31542969 2202.72460938 C156.41382892 2201.54255521 155.51075878 2200.36162077 154.60644531 2199.18164062 C146.86273256 2189.06290968 139.58394058 2178.67990122 132.44726562 2168.12597656 C131.20373442 2166.29927789 129.94592556 2164.48515421 128.671875 2162.6796875 C117.08405751 2146.2421538 106.63833047 2129.03872662 96.54394531 2111.65429688 C95.07775258 2109.13366952 93.59846772 2106.62115517 92.1171875 2104.109375 C71.18857726 2068.35797193 53.7447542 2030.68646951 39 1992 C38.56880859 1990.87416504 38.13761719 1989.74833008 37.69335938 1988.58837891 C12.49830422 1922.20463336 -0.40720292 1852.29776485 -0.24967496 1781.35759373 C-0.24342092 1777.49778377 -0.24909559 1773.63798523 -0.25308805 1769.77817475 C-0.25850402 1763.01924352 -0.25663228 1756.26034626 -0.24976516 1749.5014168 C-0.23954479 1739.40313409 -0.24104067 1729.3048753 -0.2447079 1719.20658928 C-0.25062991 1701.97928697 -0.24711978 1684.75199828 -0.23843026 1667.52469766 C-0.22957766 1649.89277315 -0.22525776 1632.26085558 -0.22614455 1614.62892878 C-0.22619851 1613.50421987 -0.22625246 1612.37951097 -0.22630805 1611.22071997 C-0.22660324 1605.48448198 -0.2269693 1599.748244 -0.22736086 1594.01200601 C-0.23002373 1552.94385845 -0.22328357 1511.87571704 -0.21115112 1470.80757141 C-0.19478133 1415.27783943 -0.19094479 1359.74812073 -0.18920898 1304.21838379 C-0.17870583 1170.70808789 -0.15078364 1037.19779382 -0.125 903.6875 C-0.08375 605.470625 -0.0425 307.25375 0 0 Z " fill="#6A7F9A" transform="translate(1834,1540)"/>
<path d="M0 0 C178.53 0 357.06 0 541 0 C541 592.02 541 1184.04 541 1794 C538.42700042 1791.42700042 538.00370221 1789.27828933 536.95068359 1785.79052734 C536.75429889 1785.14634574 536.55791418 1784.50216413 536.35557842 1783.83846188 C535.69707698 1781.67275791 535.04778911 1779.50440094 534.3984375 1777.3359375 C533.93025649 1775.78916035 533.46152908 1774.2425485 532.99229431 1772.6960907 C531.7143084 1768.47821249 530.44440922 1764.25793723 529.17593765 1760.03718948 C527.82516594 1755.54743895 526.4670954 1751.05989623 525.11010742 1746.57202148 C521.72940638 1735.38455194 518.36309513 1724.19277278 515 1713 C514.74334312 1712.14595329 514.48668625 1711.29190659 514.22225189 1710.41197968 C509.59484345 1695.01351687 504.97461401 1679.61290468 500.36132812 1664.21020508 C492.40507332 1637.6491022 484.39794639 1611.10352825 476.375 1584.5625 C475.75430131 1582.50905405 475.13360429 1580.4556076 474.51290894 1578.40216064 C473.58821403 1575.34302759 472.66351607 1572.28389545 471.73881626 1569.22476387 C471.12881221 1567.20672174 470.51881063 1565.18867886 469.90881157 1563.17063522 C469.30391081 1561.16947438 468.69899777 1559.16831724 468.09407234 1557.16716385 C462.17737588 1537.59372219 456.27324313 1518.0165093 450.375 1498.4375 C449.92413483 1496.94092768 449.47326813 1495.44435582 449.0223999 1493.94778442 C447.27040112 1488.13230543 445.51843784 1482.31681575 443.76657104 1476.501297 C439.5420022 1462.477772 435.31288012 1448.45562133 431.08325577 1434.43362045 C421.78424954 1403.60538074 412.49258782 1372.7749292 403.20199585 1341.94415283 C399.96424573 1331.19970108 396.72633069 1320.45529905 393.48828125 1309.7109375 C393.14839928 1308.58315384 393.14839928 1308.58315384 392.801651 1307.43258667 C391.20110642 1302.12172271 389.60055421 1296.81086106 388 1291.5 C386.17056754 1285.42968912 384.34113918 1279.359377 382.51171875 1273.2890625 C382.28519119 1272.53740814 382.05866364 1271.78575378 381.82527161 1271.01132202 C378.58202935 1260.24971023 375.33897429 1249.48804204 372.09602737 1238.72634125 C370.00155919 1231.77588183 367.90704498 1224.82543628 365.8125 1217.875 C365.58305695 1217.11362732 365.35361389 1216.35225464 365.11721802 1215.56781006 C358.58078114 1193.87774472 352.04177538 1172.1884558 345.5 1150.5 C336.39581234 1120.31617983 327.29834515 1090.13033602 318.20199585 1059.94415283 C314.96424573 1049.19970108 311.72633069 1038.45529905 308.48828125 1027.7109375 C308.14839928 1026.58315384 308.14839928 1026.58315384 307.801651 1025.43258667 C306.20110642 1020.12172271 304.60055421 1014.81086106 303 1009.5 C301.17056754 1003.42968912 299.34113918 997.359377 297.51171875 991.2890625 C297.28519119 990.53740814 297.05866364 989.78575378 296.82527161 989.01132202 C293.58202935 978.24971023 290.33897429 967.48804204 287.09602737 956.72634125 C285.00155919 949.77588183 282.90704498 942.82543628 280.8125 935.875 C280.58305695 935.11362732 280.35361389 934.35225464 280.11721802 933.56781006 C273.58078114 911.87774472 267.04177538 890.1884558 260.5 868.5 C251.39581234 838.31617983 242.29834515 808.13033602 233.20199585 777.94415283 C229.96424573 767.19970108 226.72633069 756.45529905 223.48828125 745.7109375 C223.26169327 744.95908173 223.03510529 744.20722595 222.801651 743.43258667 C221.20110642 738.12172271 219.60055421 732.81086106 218 727.5 C216.17056754 721.42968912 214.34113918 715.359377 212.51171875 709.2890625 C212.28519119 708.53740814 212.05866364 707.78575378 211.82527161 707.01132202 C208.58202935 696.24971023 205.33897429 685.48804204 202.09602737 674.72634125 C200.00155919 667.77588183 197.90704498 660.82543628 195.8125 653.875 C195.58305695 653.11362732 195.35361389 652.35225464 195.11721802 651.56781006 C188.58078114 629.87774472 182.04177538 608.1884558 175.5 586.5 C166.39581234 556.31617983 157.29834515 526.13033602 148.20199585 495.94415283 C144.96424573 485.19970108 141.72633069 474.45529905 138.48828125 463.7109375 C138.26169327 462.95908173 138.03510529 462.20722595 137.801651 461.43258667 C136.20110642 456.12172271 134.60055421 450.81086106 133 445.5 C131.17056754 439.42968912 129.34113918 433.359377 127.51171875 427.2890625 C127.28519119 426.53740814 127.05866364 425.78575378 126.82527161 425.01132202 C123.58202935 414.24971023 120.33897429 403.48804204 117.09602737 392.72634125 C115.00155919 385.77588183 112.90704498 378.82543628 110.8125 371.875 C110.58305695 371.11362732 110.35361389 370.35225464 110.11721802 369.56781006 C103.58078114 347.87774472 97.04177538 326.1884558 90.5 304.5 C81.39581234 274.31617983 72.29834515 244.13033602 63.20199585 213.94415283 C59.50638503 201.68029348 55.81054354 189.41650366 52.11456299 177.15275574 C51.65694169 175.63430788 51.19932043 174.11586 50.74169922 172.59741211 C50.51532021 171.8462572 50.28894119 171.09510229 50.05570221 170.32118511 C48.45911216 165.02346778 46.86259909 159.72572726 45.26611328 154.42797852 C44.35319669 151.39859828 43.44027315 148.36922013 42.52734375 145.33984375 C42.30130211 144.58976862 42.07526047 143.83969349 41.84236908 143.06688881 C39.27446895 134.54591047 36.70620275 126.02504263 34.13720703 117.50439453 C33.89943668 116.71577373 33.66166634 115.92715292 33.41669083 115.11463451 C32.45619682 111.92896098 31.49569377 108.74329017 30.53514099 105.55763435 C27.95742653 97.00864756 25.38047 88.45943417 22.80615234 79.90942383 C22.13252873 77.67226034 21.45889922 75.43509863 20.78526306 73.19793892 C20.34407048 71.73270837 19.90289805 70.26747175 19.46174622 68.80222893 C16.78877743 59.92496558 14.10821172 51.05006037 11.41703796 42.17829895 C9.9804232 37.44029198 8.5478017 32.70108354 7.11593628 27.9616394 C6.46259239 25.80293454 5.8073022 23.64481764 5.14993286 21.48733521 C4.26428888 18.58026371 3.38525218 15.67127506 2.5078125 12.76171875 C2.24964249 11.92073639 1.99147247 11.07975403 1.72547913 10.21328735 C1.49525558 9.44511688 1.26503204 8.67694641 1.02783203 7.88549805 C0.82771515 7.22631882 0.62759827 6.56713959 0.42141724 5.88798523 C0 4 0 4 0 0 Z " fill="#6A7F9A" transform="translate(1218,1540)"/>
<path d="M0 0 C39.27 0 78.54 0 119 0 C132.62191524 31.78446888 132.62191524 31.78446888 137.34249878 43.57757568 C138.89212167 47.44690385 140.45392893 51.31131338 142.015625 55.17578125 C142.33957748 55.97761841 142.66352997 56.77945557 142.99729919 57.60559082 C146.75322408 66.88585499 150.59393564 76.13077139 154.4375 85.375 C159.94849634 98.63294587 165.43374668 111.90076997 170.875 125.1875 C176.72429444 139.46901252 182.60342835 153.7379429 188.5 168 C194.67978832 182.94767854 200.83940392 197.90335239 206.97125244 212.87075806 C212.41364059 226.15360049 217.88931757 239.42248547 223.375 252.6875 C229.99036099 268.68464566 236.56676889 284.69720085 243.11218262 300.7230835 C249.31520265 315.90827512 255.56391037 331.07419996 261.83251953 346.23242188 C267.24192073 359.31337744 272.63372119 372.40129551 278 385.5 C283.80827495 399.67706735 289.64657536 413.84151596 295.5 428 C301.67901809 442.94604175 307.83781084 457.90009749 313.96923828 472.86572266 C319.45512027 486.25391983 324.97216864 499.62907324 330.5 513 C336.67901809 527.94604175 342.83781084 542.90009749 348.96923828 557.86572266 C354.45512027 571.25391983 359.97216864 584.62907324 365.5 598 C371.67901809 612.94604175 377.83781084 627.90009749 383.96923828 642.86572266 C389.45512027 656.25391983 394.97216864 669.62907324 400.5 683 C406.67901809 697.94604175 412.83781084 712.90009749 418.96923828 727.86572266 C424.45512027 741.25391983 429.97216864 754.62907324 435.5 768 C441.67901809 782.94604175 447.83781084 797.90009749 453.96923828 812.86572266 C459.45512027 826.25391983 464.97216864 839.62907324 470.5 853 C476.67970848 867.9477117 482.83940381 882.90335212 488.97125244 897.87075806 C494.41364059 911.15360049 499.88931757 924.42248547 505.375 937.6875 C511.99036099 953.68464566 518.56676889 969.69720085 525.11218262 985.7230835 C531.31520265 1000.90827512 537.56391037 1016.07419996 543.83251953 1031.23242188 C549.24192073 1044.31337744 554.63372119 1057.40129551 560 1070.5 C565.80827495 1084.67706735 571.64657536 1098.84151596 577.5 1113 C583.67901809 1127.94604175 589.83781084 1142.90009749 595.96923828 1157.86572266 C601.45512027 1171.25391983 606.97216864 1184.62907324 612.5 1198 C618.67901809 1212.94604175 624.83781084 1227.90009749 630.96923828 1242.86572266 C636.45512027 1256.25391983 641.97216864 1269.62907324 647.5 1283 C653.67901809 1297.94604175 659.83781084 1312.90009749 665.96923828 1327.86572266 C671.45512027 1341.25391983 676.97216864 1354.62907324 682.5 1368 C688.67901809 1382.94604175 694.83781084 1397.90009749 700.96923828 1412.86572266 C706.45512027 1426.25391983 711.97216864 1439.62907324 717.5 1453 C723.67901809 1467.94604175 729.83781084 1482.90009749 735.96923828 1497.86572266 C741.45512027 1511.25391983 746.97216864 1524.62907324 752.5 1538 C758.67970848 1552.9477117 764.83940381 1567.90335212 770.97125244 1582.87075806 C776.41364059 1596.15360049 781.88931757 1609.42248547 787.375 1622.6875 C793.99036099 1638.68464566 800.56676889 1654.69720085 807.11218262 1670.7230835 C813.31121851 1685.89852181 819.55588408 1701.05471722 825.82043457 1716.20321655 C832.12618926 1731.45183983 838.40598067 1746.71088703 844.66259766 1761.97973633 C844.96674591 1762.72164719 845.27089417 1763.46355804 845.58425903 1764.22795105 C846.17634595 1765.67366088 846.76741891 1767.11978647 847.35739136 1768.56636047 C848.89217873 1772.32463708 850.45055797 1776.07105784 852.04101562 1779.80615234 C852.3716803 1780.58935349 852.70234497 1781.37255463 853.04302979 1782.17948914 C853.67835316 1783.68254623 854.31982039 1785.18302521 854.96820068 1786.68049622 C855.70440981 1788.43001342 856.36019541 1790.2129733 857 1792 C856.67 1792.66 856.34 1793.32 856 1794 C850.36645105 1782.78431525 844.80525869 1771.53529407 839.3125 1760.25 C838.92126953 1759.44675293 838.53003906 1758.64350586 838.12695312 1757.81591797 C832.61601102 1746.49258433 827.23199852 1735.12191775 821.97387695 1723.67871094 C817.08026201 1713.07295708 811.95477746 1702.5850631 806.82272339 1692.09320068 C801.96171308 1682.15054133 797.18092619 1672.18317045 792.5625 1662.125 C787.37607442 1650.83219161 781.96544371 1639.65973935 776.5 1628.5 C770.50120753 1616.25123048 764.61339794 1603.96941691 758.921875 1591.57421875 C754.42124076 1581.81339738 749.72266839 1572.15487414 745 1562.5 C739.74456697 1551.75595866 734.55367425 1540.99495423 729.5625 1530.125 C724.37607442 1518.83219161 718.96544371 1507.65973935 713.5 1496.5 C707.50120753 1484.25123048 701.61339794 1471.96941691 695.921875 1459.57421875 C691.42124045 1449.81339672 686.72264933 1440.15488405 682 1430.5 C676.18769108 1418.61727843 670.49562054 1406.69635059 664.97265625 1394.67578125 C660.07914683 1384.07114362 654.95431404 1373.5841157 649.82272339 1363.09320068 C644.96171308 1353.15054133 640.18092619 1343.18317045 635.5625 1333.125 C630.37607442 1321.83219161 624.96544371 1310.65973935 619.5 1299.5 C613.50120753 1287.25123048 607.61339794 1274.96941691 601.921875 1262.57421875 C597.42124076 1252.81339738 592.72266839 1243.15487414 588 1233.5 C582.74456697 1222.75595866 577.55367425 1211.99495423 572.5625 1201.125 C567.37607442 1189.83219161 561.96544371 1178.65973935 556.5 1167.5 C550.50120753 1155.25123048 544.61339794 1142.96941691 538.921875 1130.57421875 C534.42124076 1120.81339738 529.72266839 1111.15487414 525 1101.5 C519.74456697 1090.75595866 514.55367425 1079.99495423 509.5625 1069.125 C504.37607442 1057.83219161 498.96544371 1046.65973935 493.5 1035.5 C487.50120753 1023.25123048 481.61339794 1010.96941691 475.921875 998.57421875 C471.42124076 988.81339738 466.72266839 979.15487414 462 969.5 C456.74456697 958.75595866 451.55367425 947.99495423 446.5625 937.125 C441.37607442 925.83219161 435.96544371 914.65973935 430.5 903.5 C424.50120753 891.25123048 418.61339794 878.96941691 412.921875 866.57421875 C408.42124076 856.81339738 403.72266839 847.15487414 399 837.5 C393.74456697 826.75595866 388.55367425 815.99495423 383.5625 805.125 C378.37607442 793.83219161 372.96544371 782.65973935 367.5 771.5 C361.50120753 759.25123048 355.61339794 746.96941691 349.921875 734.57421875 C345.42124076 724.81339738 340.72266839 715.15487414 336 705.5 C330.74456697 694.75595866 325.55367425 683.99495423 320.5625 673.125 C315.37607442 661.83219161 309.96544371 650.65973935 304.5 639.5 C298.50120753 627.25123048 292.61339794 614.96941691 286.921875 602.57421875 C282.42124045 592.81339672 277.72264933 583.15488405 273 573.5 C267.18769108 561.61727843 261.49562054 549.69635059 255.97265625 537.67578125 C251.07914683 527.07114362 245.95431404 516.5841157 240.82272339 506.09320068 C235.96171308 496.15054133 231.18092619 486.18317045 226.5625 476.125 C221.37607442 464.83219161 215.96544371 453.65973935 210.5 442.5 C204.50120753 430.25123048 198.61339794 417.96941691 192.921875 405.57421875 C188.42124076 395.81339738 183.72266839 386.15487414 179 376.5 C173.74456697 365.75595866 168.55367425 354.99495423 163.5625 344.125 C158.37607442 332.83219161 152.96544371 321.65973935 147.5 310.5 C141.50120753 298.25123048 135.61339794 285.96941691 129.921875 273.57421875 C125.42124076 263.81339738 120.72266839 254.15487414 116 244.5 C110.74456697 233.75595866 105.55367425 222.99495423 100.5625 212.125 C95.37607442 200.83219161 89.96544371 189.65973935 84.5 178.5 C78.50120753 166.25123048 72.61339794 153.96941691 66.921875 141.57421875 C62.42124076 131.81339738 57.72266839 122.15487414 53 112.5 C47.74456776 101.75596027 42.55361963 90.99497827 37.5625 80.125 C32.35712788 68.78960076 26.9234706 57.576574 21.4375 46.375 C15.78937753 34.83971656 10.1912373 23.28871534 4.8125 11.625 C4.06407837 10.00343994 4.06407837 10.00343994 3.30053711 8.34912109 C0 1.13868004 0 1.13868004 0 0 Z " fill="#6A7F9A" transform="translate(876,1540)"/>
<path d="M0 0 C39.27 0 78.54 0 119 0 C124.28 16.5 129.56 33 135 50 C138.74172201 61.43096075 142.48949248 72.8591155 146.26582718 84.27856064 C148.59832198 91.33615744 150.92277971 98.3964078 153.24609375 105.45703125 C153.49895079 106.22541132 153.75180782 106.99379139 154.01232719 107.7854557 C158.75209157 122.19478631 163.39101923 136.63496237 167.98535156 151.09130859 C174.0310865 170.10263387 180.2561397 189.05308966 186.5 208 C193.06182518 227.9117705 199.58751346 247.83188097 205.9375 267.8125 C212.48716169 288.4209014 219.22890855 308.96358971 226 329.5 C233.08920911 351.00124658 240.12813592 372.51466233 246.98535156 394.09130859 C253.0310865 413.10263387 259.2561397 432.05308966 265.5 451 C272.06182518 470.9117705 278.58751346 490.83188097 284.9375 510.8125 C291.48716169 531.4209014 298.22890855 551.96358971 305 572.5 C312.08920911 594.00124658 319.12813592 615.51466233 325.98535156 637.09130859 C332.0310865 656.10263387 338.2561397 675.05308966 344.5 694 C351.06182518 713.9117705 357.58751346 733.83188097 363.9375 753.8125 C370.48716169 774.4209014 377.22890855 794.96358971 384 815.5 C391.08920911 837.00124658 398.12813592 858.51466233 404.98535156 880.09130859 C411.0310865 899.10263387 417.2561397 918.05308966 423.5 937 C430.06182518 956.9117705 436.58751346 976.83188097 442.9375 996.8125 C449.74230189 1018.22369579 456.75640844 1039.56358877 463.79130173 1060.89996719 C470.59415984 1081.53388848 477.3388834 1102.18253886 483.91796875 1122.88916016 C490.14411964 1142.4706674 496.56599806 1161.98608635 503 1181.5 C510.08922681 1203.00124054 517.12813601 1224.51466263 523.98535156 1246.09130859 C530.0310865 1265.10263387 536.2561397 1284.05308966 542.5 1303 C549.06182518 1322.9117705 555.58751346 1342.83188097 561.9375 1362.8125 C568.48716169 1383.4209014 575.22890855 1403.96358971 582 1424.5 C589.08920911 1446.00124658 596.12813592 1467.51466233 602.98535156 1489.09130859 C609.0310865 1508.10263387 615.2561397 1527.05308966 621.5 1546 C628.06182518 1565.9117705 634.58751346 1585.83188097 640.9375 1605.8125 C647.48716273 1626.42090469 654.22909497 1646.96352589 661 1667.5 C668.65238782 1690.71091709 676.25036872 1713.93572372 683.65014648 1737.22875977 C684.26017919 1739.148624 684.87028518 1741.06846495 685.48046875 1742.98828125 C685.77291977 1743.90859634 686.06537079 1744.82891144 686.36668396 1745.77711487 C688.43014767 1752.25401341 690.5421112 1758.71389115 692.67578125 1765.16796875 C693.25493817 1766.92608854 693.83404118 1768.68422608 694.41308594 1770.44238281 C695.4783328 1773.67550595 696.55465408 1776.90463686 697.63769531 1780.13183594 C698.10394831 1781.54477917 698.5697953 1782.95785647 699.03515625 1784.37109375 C699.4412915 1785.58724365 699.84742676 1786.80339355 700.26586914 1788.05639648 C701 1791 701 1791 700 1794 C690.26809263 1769.41000885 680.60794923 1744.79289395 671.00732422 1720.15136719 C667.71598359 1711.70399868 664.42058742 1703.2582124 661.125 1694.8125 C660.79831329 1693.97520355 660.47162659 1693.1379071 660.13504028 1692.27523804 C654.3847951 1677.53803938 648.62147974 1662.80597268 642.8550415 1648.07510376 C637.2344749 1633.71651641 631.62365371 1619.35416303 626.02050781 1604.98876953 C620.6896665 1591.32218979 615.34730135 1577.66014722 610 1564 C604.28442108 1549.39865596 598.57427856 1534.79521475 592.875 1520.1875 C592.54788025 1519.34907562 592.2207605 1518.51065125 591.88372803 1517.64682007 C589.26234749 1510.92782487 586.64153518 1504.20860808 584.02075195 1497.48937988 C581.72243862 1491.59698099 579.42389109 1485.70467351 577.125 1479.8125 C576.79804138 1478.97447845 576.47108276 1478.13645691 576.13421631 1477.27304077 C570.76481929 1463.51196227 565.38432442 1449.75524383 560 1436 C554.28447202 1421.39863597 548.57427859 1406.79521482 542.875 1392.1875 C542.54788025 1391.34907562 542.2207605 1390.51065125 541.88372803 1389.64682007 C539.26234749 1382.92782487 536.64153518 1376.20860808 534.02075195 1369.48937988 C531.72243862 1363.59698099 529.42389109 1357.70467351 527.125 1351.8125 C526.79804138 1350.97447845 526.47108276 1350.13645691 526.13421631 1349.27304077 C520.38423684 1334.53657808 514.62119461 1319.80524428 508.8550415 1305.07510376 C503.2344749 1290.71651641 497.62365371 1276.35416303 492.02050781 1261.98876953 C486.6896665 1248.32218979 481.34730135 1234.66014722 476 1221 C470.28442108 1206.39865596 464.57427856 1191.79521475 458.875 1177.1875 C458.54788025 1176.34907562 458.2207605 1175.51065125 457.88372803 1174.64682007 C455.26234749 1167.92782487 452.64153518 1161.20860808 450.02075195 1154.48937988 C447.72243862 1148.59698099 445.42389109 1142.70467351 443.125 1136.8125 C442.79804138 1135.97447845 442.47108276 1135.13645691 442.13421631 1134.27304077 C436.38423684 1119.53657808 430.62119461 1104.80524428 424.8550415 1090.07510376 C419.2344749 1075.71651641 413.62365371 1061.35416303 408.02050781 1046.98876953 C402.6896665 1033.32218979 397.34730135 1019.66014722 392 1006 C386.28442108 991.39865596 380.57427856 976.79521475 374.875 962.1875 C374.54788025 961.34907562 374.2207605 960.51065125 373.88372803 959.64682007 C371.26234749 952.92782487 368.64153518 946.20860808 366.02075195 939.48937988 C363.72243862 933.59698099 361.42389109 927.70467351 359.125 921.8125 C358.79804138 920.97447845 358.47108276 920.13645691 358.13421631 919.27304077 C352.76481929 905.51196227 347.38432442 891.75524383 342 878 C336.28447202 863.39863597 330.57427859 848.79521482 324.875 834.1875 C324.54788025 833.34907562 324.2207605 832.51065125 323.88372803 831.64682007 C321.26234749 824.92782487 318.64153518 818.20860808 316.02075195 811.48937988 C313.72243862 805.59698099 311.42389109 799.70467351 309.125 793.8125 C308.79804138 792.97447845 308.47108276 792.13645691 308.13421631 791.27304077 C302.38423684 776.53657808 296.62119461 761.80524428 290.8550415 747.07510376 C285.2344749 732.71651641 279.62365371 718.35416303 274.02050781 703.98876953 C268.6896665 690.32218979 263.34730135 676.66014722 258 663 C252.28442108 648.39865596 246.57427856 633.79521475 240.875 619.1875 C240.54788025 618.34907562 240.2207605 617.51065125 239.88372803 616.64682007 C237.26234749 609.92782487 234.64153518 603.20860808 232.02075195 596.48937988 C229.72243862 590.59698099 227.42389109 584.70467351 225.125 578.8125 C224.79804138 577.97447845 224.47108276 577.13645691 224.13421631 576.27304077 C218.38423684 561.53657808 212.62119461 546.80524428 206.8550415 532.07510376 C201.2344749 517.71651641 195.62365371 503.35416303 190.02050781 488.98876953 C184.6896665 475.32218979 179.34730135 461.66014722 174 448 C168.28442108 433.39865596 162.57427856 418.79521475 156.875 404.1875 C156.54788025 403.34907562 156.2207605 402.51065125 155.88372803 401.64682007 C153.26234749 394.92782487 150.64153518 388.20860808 148.02075195 381.48937988 C145.72243862 375.59698099 143.42389109 369.70467351 141.125 363.8125 C140.79804138 362.97447845 140.47108276 362.13645691 140.13421631 361.27304077 C134.76481929 347.51196227 129.38432442 333.75524383 124 320 C118.28447202 305.39863597 112.57427859 290.79521482 106.875 276.1875 C106.38432037 274.92986343 106.38432037 274.92986343 105.88372803 273.64682007 C103.26234749 266.92782487 100.64153518 260.20860808 98.02075195 253.48937988 C95.72243862 247.59698099 93.42389109 241.70467351 91.125 235.8125 C90.79804138 234.97447845 90.47108276 234.13645691 90.13421631 233.27304077 C84.38423684 218.53657808 78.62119461 203.80524428 72.8550415 189.07510376 C67.2344749 174.71651641 61.62365371 160.35416303 56.02050781 145.98876953 C50.31005143 131.34897763 44.58622932 116.71444273 38.85751343 102.08178711 C34.84306726 91.82767398 30.83102714 81.57265003 26.83203125 71.3125 C26.49618011 70.45097321 26.16032898 69.58944641 25.81430054 68.70181274 C24.4872126 65.29738672 23.160159 61.89294817 21.83447266 58.48797607 C18.14513453 49.01260019 14.43054726 39.54811926 10.66796875 30.1015625 C9.96180611 28.3255314 9.25566962 26.5494899 8.54956055 24.7734375 C7.21172862 21.40912267 5.86716994 18.0476025 4.51879883 14.6875 C3.91854438 13.1797823 3.31851519 11.67197489 2.71875 10.1640625 C2.44149582 9.47865387 2.16424164 8.79324524 1.87858582 8.08706665 C0.74530471 5.22386963 0 3.11130636 0 0 Z " fill="#6A7F9A" transform="translate(1045,1540)"/>
<path d="M0 0 C0.66 0 1.32 0 2 0 C2.69848264 1.93356782 3.38344814 3.87202298 4.0625 5.8125 C4.44535156 6.89144531 4.82820313 7.97039063 5.22265625 9.08203125 C6 12 6 12 5 15 C4.16013916 13.06532058 3.32831973 11.12714871 2.5 9.1875 C2.0359375 8.10855469 1.571875 7.02960937 1.09375 5.91796875 C0 3 0 3 0 0 Z " fill="#577084" transform="translate(1740,3319)"/>
</svg>